<?xml version="1.0" standalone="no"?>
<svg xmlns:xlink="http://www.w3.org/1999/xlink" id="wave" style="transform:rotate(0deg); transition: 0.3s" viewBox="0 0 1440 100" version="1.1" xmlns="http://www.w3.org/2000/svg"><defs><linearGradient id="sw-gradient-0" x1="0" x2="0" y1="1" y2="0"><stop stop-color="rgba(255, 255, 255, 1)" offset="0%"/><stop stop-color="rgba(255, 255, 255, 1)" offset="100%"/></linearGradient></defs><path style="transform:translate(0, 0px); opacity:1" fill="url(#sw-gradient-0)" d="M0,60L12,56.7C24,53,48,47,72,50C96,53,120,67,144,73.3C168,80,192,80,216,76.7C240,73,264,67,288,58.3C312,50,336,40,360,31.7C384,23,408,17,432,16.7C456,17,480,23,504,36.7C528,50,552,70,576,70C600,70,624,50,648,43.3C672,37,696,43,720,48.3C744,53,768,57,792,61.7C816,67,840,73,864,76.7C888,80,912,80,936,73.3C960,67,984,53,1008,43.3C1032,33,1056,27,1080,23.3C1104,20,1128,20,1152,28.3C1176,37,1200,53,1224,56.7C1248,60,1272,50,1296,50C1320,50,1344,60,1368,56.7C1392,53,1416,37,1440,33.3C1464,30,1488,40,1512,50C1536,60,1560,70,1584,75C1608,80,1632,80,1656,80C1680,80,1704,80,1716,80L1728,80L1728,100L1716,100C1704,100,1680,100,1656,100C1632,100,1608,100,1584,100C1560,100,1536,100,1512,100C1488,100,1464,100,1440,100C1416,100,1392,100,1368,100C1344,100,1320,100,1296,100C1272,100,1248,100,1224,100C1200,100,1176,100,1152,100C1128,100,1104,100,1080,100C1056,100,1032,100,1008,100C984,100,960,100,936,100C912,100,888,100,864,100C840,100,816,100,792,100C768,100,744,100,720,100C696,100,672,100,648,100C624,100,600,100,576,100C552,100,528,100,504,100C480,100,456,100,432,100C408,100,384,100,360,100C336,100,312,100,288,100C264,100,240,100,216,100C192,100,168,100,144,100C120,100,96,100,72,100C48,100,24,100,12,100L0,100Z"/></svg>